<svg xmlns="http://www.w3.org/2000/svg" viewBox="0 0 571 625.5">
<defs>
  <radialGradient id='hair-color'>
    <stop offset='0%' stop-color='yellow'/>
    <stop offset='50%' stop-color='hotpink'/>
    <stop offset='100%' stop-color='deepskyblue'/>
  </radialGradient>
  <!-- <linearGradient id='hair-color'>
    <stop offset='0%' stop-color='yellow'/>
    <stop offset='50%' stop-color='hotpink'/>
    <stop offset='100%' stop-color='deepskyblue'/>
  </linearGradient> -->
  <style>
    <![CDATA[
    .hair {
      fill: url('#hair-color');
   }
    ]]>
  </style>
</defs>
<circle cx="286.5" cy="354.5" r="251" style="stroke-width:40px;fill:none;stroke:#000;stroke-miterlimit:10"/>
<circle cx="175" cy="380.5" r="42.5"/>
<circle cx="397" cy="380.5" r="42.5"/>
<path d="M422 476.16c-33.28 37.19-81.65 60.59-135.48 60.59H286c-53.83 0-102.2-23.4-135.48-60.59" style="fill:none;stroke:#000;stroke-miterlimit:10;stroke-width:30px"/>
<path class='hair' d="M428.5 75c-12.32 0-24.28 1.36-35.68 3.9C376.86 33.64 316.96 0 245.5 0 162.57 0 95.22 45.3 94.03 101.49 38.32 121.31 0 162.68 0 210.5 0 277.6 75.44 332 168.5 332c61.99 0 116.14-24.14 145.41-60.09C339.87 302.29 381.53 322 428.5 322c78.7 0 142.5-55.29 142.5-123.5S507.2 75 428.5 75Z"/></svg>